<mxfile host="Electron" agent="Mozilla/5.0 (Windows NT 10.0; Win64; x64) AppleWebKit/537.36 (KHTML, like Gecko) draw.io/21.6.8 Chrome/114.0.5735.289 Electron/25.5.0 Safari/537.36" modified="2024-10-29T13:57:57.653Z" version="21.6.8" etag="vZqeyCa1ta6KsLLl4Lc5" type="device">
  <diagram name="PÃ¡gina-1" id="Y8kG4D0sIegUcbZtIxIa">
    <mxGraphModel dx="794" dy="780" grid="1" gridSize="10" guides="1" tooltips="1" connect="1" arrows="1" fold="1" page="1" pageScale="1" pageWidth="2500" pageHeight="1100" math="0" shadow="0">
      <root>
        <mxCell id="0" />
        <mxCell id="1" parent="0" />
        <mxCell id="N6icmQkTYJshCkjCp3aX-7" style="rounded=0;orthogonalLoop=1;jettySize=auto;html=1;exitX=1;exitY=0.25;exitDx=0;exitDy=0;entryX=0;entryY=0.25;entryDx=0;entryDy=0;endArrow=none;endFill=0;" parent="1" source="N6icmQkTYJshCkjCp3aX-1" target="N6icmQkTYJshCkjCp3aX-2" edge="1">
          <mxGeometry relative="1" as="geometry" />
        </mxCell>
        <mxCell id="N6icmQkTYJshCkjCp3aX-8" style="edgeStyle=orthogonalEdgeStyle;rounded=0;orthogonalLoop=1;jettySize=auto;html=1;exitX=1;exitY=0.5;exitDx=0;exitDy=0;entryX=0;entryY=0.5;entryDx=0;entryDy=0;endArrow=none;endFill=0;" parent="1" source="N6icmQkTYJshCkjCp3aX-1" target="N6icmQkTYJshCkjCp3aX-3" edge="1">
          <mxGeometry relative="1" as="geometry" />
        </mxCell>
        <mxCell id="N6icmQkTYJshCkjCp3aX-9" style="rounded=0;orthogonalLoop=1;jettySize=auto;html=1;exitX=1;exitY=0.75;exitDx=0;exitDy=0;entryX=0;entryY=0.5;entryDx=0;entryDy=0;endArrow=none;endFill=0;" parent="1" source="N6icmQkTYJshCkjCp3aX-1" target="N6icmQkTYJshCkjCp3aX-4" edge="1">
          <mxGeometry relative="1" as="geometry" />
        </mxCell>
        <mxCell id="N6icmQkTYJshCkjCp3aX-1" value="CLIENTES" style="rounded=1;whiteSpace=wrap;html=1;" parent="1" vertex="1">
          <mxGeometry x="40" y="110" width="120" height="60" as="geometry" />
        </mxCell>
        <mxCell id="N6icmQkTYJshCkjCp3aX-10" value="" style="edgeStyle=orthogonalEdgeStyle;rounded=0;orthogonalLoop=1;jettySize=auto;html=1;endArrow=none;endFill=0;" parent="1" source="N6icmQkTYJshCkjCp3aX-2" target="N6icmQkTYJshCkjCp3aX-5" edge="1">
          <mxGeometry relative="1" as="geometry" />
        </mxCell>
        <mxCell id="N6icmQkTYJshCkjCp3aX-2" value="TRANSACCIONES" style="rounded=1;whiteSpace=wrap;html=1;" parent="1" vertex="1">
          <mxGeometry x="330" y="30" width="120" height="60" as="geometry" />
        </mxCell>
        <mxCell id="N6icmQkTYJshCkjCp3aX-3" value="TARJETAS DE CREDITO" style="rounded=1;whiteSpace=wrap;html=1;" parent="1" vertex="1">
          <mxGeometry x="330" y="110" width="120" height="60" as="geometry" />
        </mxCell>
        <mxCell id="N6icmQkTYJshCkjCp3aX-4" value="PRESTAMOS" style="rounded=1;whiteSpace=wrap;html=1;" parent="1" vertex="1">
          <mxGeometry x="330" y="190" width="120" height="60" as="geometry" />
        </mxCell>
        <mxCell id="N6icmQkTYJshCkjCp3aX-11" value="" style="edgeStyle=orthogonalEdgeStyle;rounded=0;orthogonalLoop=1;jettySize=auto;html=1;endArrow=none;endFill=0;" parent="1" source="N6icmQkTYJshCkjCp3aX-5" target="N6icmQkTYJshCkjCp3aX-6" edge="1">
          <mxGeometry relative="1" as="geometry" />
        </mxCell>
        <mxCell id="cRWEfBAycTgtOIBB6JJh-4" value="" style="edgeStyle=orthogonalEdgeStyle;rounded=0;orthogonalLoop=1;jettySize=auto;html=1;" edge="1" parent="1" source="N6icmQkTYJshCkjCp3aX-5" target="cRWEfBAycTgtOIBB6JJh-3">
          <mxGeometry relative="1" as="geometry" />
        </mxCell>
        <mxCell id="N6icmQkTYJshCkjCp3aX-5" value="SUCURSALES AGENCIAS" style="rounded=1;whiteSpace=wrap;html=1;" parent="1" vertex="1">
          <mxGeometry x="550" y="30" width="120" height="60" as="geometry" />
        </mxCell>
        <mxCell id="cRWEfBAycTgtOIBB6JJh-2" value="" style="edgeStyle=orthogonalEdgeStyle;rounded=0;orthogonalLoop=1;jettySize=auto;html=1;" edge="1" parent="1" source="N6icmQkTYJshCkjCp3aX-6" target="cRWEfBAycTgtOIBB6JJh-1">
          <mxGeometry relative="1" as="geometry" />
        </mxCell>
        <mxCell id="N6icmQkTYJshCkjCp3aX-6" value="EMPLEADO" style="rounded=1;whiteSpace=wrap;html=1;" parent="1" vertex="1">
          <mxGeometry x="550" y="130" width="120" height="60" as="geometry" />
        </mxCell>
        <mxCell id="cRWEfBAycTgtOIBB6JJh-1" value="SEGURIDAD ACCESOS" style="rounded=1;whiteSpace=wrap;html=1;" vertex="1" parent="1">
          <mxGeometry x="550" y="270" width="120" height="60" as="geometry" />
        </mxCell>
        <mxCell id="cRWEfBAycTgtOIBB6JJh-6" value="" style="edgeStyle=orthogonalEdgeStyle;rounded=0;orthogonalLoop=1;jettySize=auto;html=1;" edge="1" parent="1" source="cRWEfBAycTgtOIBB6JJh-3" target="cRWEfBAycTgtOIBB6JJh-5">
          <mxGeometry relative="1" as="geometry" />
        </mxCell>
        <mxCell id="cRWEfBAycTgtOIBB6JJh-3" value="BOVEDAS" style="rounded=1;whiteSpace=wrap;html=1;" vertex="1" parent="1">
          <mxGeometry x="750" y="30" width="120" height="60" as="geometry" />
        </mxCell>
        <mxCell id="cRWEfBAycTgtOIBB6JJh-5" value="TRANSACCIONES INTERBANCARIAS" style="rounded=1;whiteSpace=wrap;html=1;" vertex="1" parent="1">
          <mxGeometry x="750" y="170" width="120" height="60" as="geometry" />
        </mxCell>
      </root>
    </mxGraphModel>
  </diagram>
</mxfile>
